<?xml version="1.0" encoding="UTF-8" standalone="no"?><svg xmlns="http://www.w3.org/2000/svg" xmlns:xlink="http://www.w3.org/1999/xlink" contentScriptType="application/ecmascript" contentStyleType="text/css" height="802px" preserveAspectRatio="none" style="width:495px;height:802px;" version="1.1" viewBox="0 0 495 802" width="495px" zoomAndPan="magnify"><defs><filter height="300%" id="fxc4npew20g2r" width="300%" x="-1" y="-1"><feGaussianBlur result="blurOut" stdDeviation="2.0"/><feColorMatrix in="blurOut" result="blurOut2" type="matrix" values="0 0 0 0 0 0 0 0 0 0 0 0 0 0 0 0 0 0 .4 0"/><feOffset dx="4.0" dy="4.0" in="blurOut2" result="blurOut3"/><feBlend in="SourceGraphic" in2="blurOut3" mode="normal"/></filter></defs><g><text fill="#000000" font-family="sans-serif" font-size="18" lengthAdjust="spacingAndGlyphs" textLength="42" x="223.5" y="16.708">ER図</text><!--class ユーザ--><rect fill="#FEFECE" filter="url(#fxc4npew20g2r)" height="124.8281" id="ユーザ" style="stroke: #A80036; stroke-width: 1.5;" width="83" x="251.672" y="162.9531"/><ellipse cx="274.322" cy="178.9531" fill="#ADD1B2" rx="11" ry="11" style="stroke: #A80036; stroke-width: 1.0;"/><path d="M278.4314,184.9531 L270.7126,184.9531 L270.7126,172.5625 L278.4314,172.5625 L278.4314,174.7188 L273.1658,174.7188 L273.1658,177.3906 L277.9314,177.3906 L277.9314,179.5469 L273.1658,179.5469 L273.1658,182.7969 L278.4314,182.7969 L278.4314,184.9531 Z "/><text fill="#000000" font-family="sans-serif" font-size="12" lengthAdjust="spacingAndGlyphs" textLength="34" x="290.022" y="183.1074">ユーザ</text><line style="stroke: #A80036; stroke-width: 1.5;" x1="252.672" x2="333.672" y1="194.9531" y2="194.9531"/><ellipse cx="262.672" cy="206.8555" fill="#000000" rx="3" ry="3" style="stroke: #000000; stroke-width: 1.0;"/><text fill="#000000" font-family="sans-serif" font-size="11" lengthAdjust="spacingAndGlyphs" textLength="42" x="271.672" y="209.1636">ユーザID</text><line style="stroke: #A80036; stroke-width: 1.0;" x1="252.672" x2="333.672" y1="215.7578" y2="215.7578"/><ellipse cx="262.672" cy="227.6602" fill="#000000" rx="3" ry="3" style="stroke: #000000; stroke-width: 1.0;"/><text fill="#000000" font-family="sans-serif" font-size="11" lengthAdjust="spacingAndGlyphs" textLength="22" x="271.672" y="229.9683">氏名</text><ellipse cx="262.672" cy="240.4648" fill="#000000" rx="3" ry="3" style="stroke: #000000; stroke-width: 1.0;"/><text fill="#000000" font-family="sans-serif" font-size="11" lengthAdjust="spacingAndGlyphs" textLength="57" x="271.672" y="242.7729">ニックネーム</text><ellipse cx="262.672" cy="253.2695" fill="#000000" rx="3" ry="3" style="stroke: #000000; stroke-width: 1.0;"/><text fill="#000000" font-family="sans-serif" font-size="11" lengthAdjust="spacingAndGlyphs" textLength="22" x="271.672" y="255.5776">性別</text><ellipse cx="262.672" cy="266.0742" fill="#000000" rx="3" ry="3" style="stroke: #000000; stroke-width: 1.0;"/><text fill="#000000" font-family="sans-serif" font-size="11" lengthAdjust="spacingAndGlyphs" textLength="33" x="271.672" y="268.3823">居住地</text><ellipse cx="262.672" cy="278.8789" fill="#000000" rx="3" ry="3" style="stroke: #000000; stroke-width: 1.0;"/><text fill="#000000" font-family="sans-serif" font-size="11" lengthAdjust="spacingAndGlyphs" textLength="11" x="271.672" y="281.187">ID</text><!--class スポット--><rect fill="#FEFECE" filter="url(#fxc4npew20g2r)" height="112.0234" id="スポット" style="stroke: #A80036; stroke-width: 1.5;" width="91" x="181.672" y="347.9531"/><ellipse cx="205.222" cy="363.9531" fill="#ADD1B2" rx="11" ry="11" style="stroke: #A80036; stroke-width: 1.0;"/><path d="M209.3314,369.9531 L201.6126,369.9531 L201.6126,357.5625 L209.3314,357.5625 L209.3314,359.7188 L204.0658,359.7188 L204.0658,362.3906 L208.8314,362.3906 L208.8314,364.5469 L204.0658,364.5469 L204.0658,367.7969 L209.3314,367.7969 L209.3314,369.9531 Z "/><text fill="#000000" font-family="sans-serif" font-size="12" lengthAdjust="spacingAndGlyphs" textLength="40" x="221.122" y="368.1074">スポット</text><line style="stroke: #A80036; stroke-width: 1.5;" x1="182.672" x2="271.672" y1="379.9531" y2="379.9531"/><ellipse cx="192.672" cy="391.8555" fill="#000000" rx="3" ry="3" style="stroke: #000000; stroke-width: 1.0;"/><text fill="#000000" font-family="sans-serif" font-size="11" lengthAdjust="spacingAndGlyphs" textLength="47" x="201.672" y="394.1636">スポットID</text><line style="stroke: #A80036; stroke-width: 1.0;" x1="182.672" x2="271.672" y1="400.7578" y2="400.7578"/><ellipse cx="192.672" cy="412.6602" fill="#000000" rx="3" ry="3" style="stroke: #000000; stroke-width: 1.0;"/><text fill="#000000" font-family="sans-serif" font-size="11" lengthAdjust="spacingAndGlyphs" textLength="65" x="201.672" y="414.9683">スポット名称{</text><ellipse cx="192.672" cy="425.4648" fill="#000000" rx="3" ry="3" style="stroke: #000000; stroke-width: 1.0;"/><text fill="#000000" font-family="sans-serif" font-size="11" lengthAdjust="spacingAndGlyphs" textLength="22" x="201.672" y="427.7729">年代</text><ellipse cx="192.672" cy="438.2695" fill="#000000" rx="3" ry="3" style="stroke: #000000; stroke-width: 1.0;"/><text fill="#000000" font-family="sans-serif" font-size="11" lengthAdjust="spacingAndGlyphs" textLength="22" x="201.672" y="440.5776">季節</text><ellipse cx="192.672" cy="451.0742" fill="#000000" rx="3" ry="3" style="stroke: #000000; stroke-width: 1.0;"/><text fill="#000000" font-family="sans-serif" font-size="11" lengthAdjust="spacingAndGlyphs" textLength="22" x="201.672" y="453.3823">住所</text><!--class 画像--><rect fill="#FEFECE" filter="url(#fxc4npew20g2r)" height="73.6094" id="画像" style="stroke: #A80036; stroke-width: 1.5;" width="59" x="39.672" y="710.9531"/><ellipse cx="56.022" cy="726.9531" fill="#ADD1B2" rx="11" ry="11" style="stroke: #A80036; stroke-width: 1.0;"/><path d="M60.1314,732.9531 L52.4126,732.9531 L52.4126,720.5625 L60.1314,720.5625 L60.1314,722.7188 L54.8658,722.7188 L54.8658,725.3906 L59.6314,725.3906 L59.6314,727.5469 L54.8658,727.5469 L54.8658,730.7969 L60.1314,730.7969 L60.1314,732.9531 Z "/><text fill="#000000" font-family="sans-serif" font-size="12" lengthAdjust="spacingAndGlyphs" textLength="24" x="70.322" y="731.1074">画像</text><line style="stroke: #A80036; stroke-width: 1.5;" x1="40.672" x2="97.672" y1="742.9531" y2="742.9531"/><ellipse cx="50.672" cy="754.8555" fill="#000000" rx="3" ry="3" style="stroke: #000000; stroke-width: 1.0;"/><text fill="#000000" font-family="sans-serif" font-size="11" lengthAdjust="spacingAndGlyphs" textLength="33" x="59.672" y="757.1636">画像ID</text><line style="stroke: #A80036; stroke-width: 1.0;" x1="40.672" x2="97.672" y1="763.7578" y2="763.7578"/><ellipse cx="50.672" cy="775.6602" fill="#000000" rx="3" ry="3" style="stroke: #000000; stroke-width: 1.0;"/><text fill="#000000" font-family="sans-serif" font-size="11" lengthAdjust="spacingAndGlyphs" textLength="21" x="59.672" y="777.9683">URL</text><!--class コメント--><rect fill="#FEFECE" filter="url(#fxc4npew20g2r)" height="86.4141" id="コメント" style="stroke: #A80036; stroke-width: 1.5;" width="95" x="203.672" y="704.9531"/><ellipse cx="229.922" cy="720.9531" fill="#ADD1B2" rx="11" ry="11" style="stroke: #A80036; stroke-width: 1.0;"/><path d="M234.0314,726.9531 L226.3126,726.9531 L226.3126,714.5625 L234.0314,714.5625 L234.0314,716.7188 L228.7658,716.7188 L228.7658,719.3906 L233.5314,719.3906 L233.5314,721.5469 L228.7658,721.5469 L228.7658,724.7969 L234.0314,724.7969 L234.0314,726.9531 Z "/><text fill="#000000" font-family="sans-serif" font-size="12" lengthAdjust="spacingAndGlyphs" textLength="38" x="246.422" y="725.1074">コメント</text><line style="stroke: #A80036; stroke-width: 1.5;" x1="204.672" x2="297.672" y1="736.9531" y2="736.9531"/><ellipse cx="214.672" cy="748.8555" fill="#000000" rx="3" ry="3" style="stroke: #000000; stroke-width: 1.0;"/><text fill="#000000" font-family="sans-serif" font-size="11" lengthAdjust="spacingAndGlyphs" textLength="45" x="223.672" y="751.1636">コメントID</text><ellipse cx="214.672" cy="761.6602" fill="#000000" rx="3" ry="3" style="stroke: #000000; stroke-width: 1.0;"/><text fill="#000000" font-family="sans-serif" font-size="11" lengthAdjust="spacingAndGlyphs" textLength="69" x="223.672" y="763.9683">スポット詳細ID</text><line style="stroke: #A80036; stroke-width: 1.0;" x1="204.672" x2="297.672" y1="770.5625" y2="770.5625"/><ellipse cx="214.672" cy="782.4648" fill="#000000" rx="3" ry="3" style="stroke: #000000; stroke-width: 1.0;"/><text fill="#000000" font-family="sans-serif" font-size="11" lengthAdjust="spacingAndGlyphs" textLength="34" x="223.672" y="784.7729">コメント</text><!--class いいね--><rect fill="#FEFECE" filter="url(#fxc4npew20g2r)" height="73.6094" id="いいね" style="stroke: #A80036; stroke-width: 1.5;" width="95" x="375.672" y="710.9531"/><ellipse cx="403.722" cy="726.9531" fill="#ADD1B2" rx="11" ry="11" style="stroke: #A80036; stroke-width: 1.0;"/><path d="M407.8314,732.9531 L400.1126,732.9531 L400.1126,720.5625 L407.8314,720.5625 L407.8314,722.7188 L402.5658,722.7188 L402.5658,725.3906 L407.3314,725.3906 L407.3314,727.5469 L402.5658,727.5469 L402.5658,730.7969 L407.8314,730.7969 L407.8314,732.9531 Z "/><text fill="#000000" font-family="sans-serif" font-size="12" lengthAdjust="spacingAndGlyphs" textLength="34" x="420.622" y="731.1074">いいね</text><line style="stroke: #A80036; stroke-width: 1.5;" x1="376.672" x2="469.672" y1="742.9531" y2="742.9531"/><ellipse cx="386.672" cy="754.8555" fill="#000000" rx="3" ry="3" style="stroke: #000000; stroke-width: 1.0;"/><text fill="#000000" font-family="sans-serif" font-size="11" lengthAdjust="spacingAndGlyphs" textLength="42" x="395.672" y="757.1636">いいねID</text><line style="stroke: #A80036; stroke-width: 1.0;" x1="376.672" x2="469.672" y1="763.7578" y2="763.7578"/><ellipse cx="386.672" cy="775.6602" fill="#000000" rx="3" ry="3" style="stroke: #000000; stroke-width: 1.0;"/><text fill="#000000" font-family="sans-serif" font-size="11" lengthAdjust="spacingAndGlyphs" textLength="69" x="395.672" y="777.9683">スポット詳細ID</text><!--class ユーザカテゴリ--><rect fill="#FEFECE" filter="url(#fxc4npew20g2r)" height="73.6094" id="ユーザカテゴリ" style="stroke: #A80036; stroke-width: 1.5;" width="108" x="239.172" y="28.9531"/><ellipse cx="254.172" cy="44.9531" fill="#ADD1B2" rx="11" ry="11" style="stroke: #A80036; stroke-width: 1.0;"/><path d="M258.2814,50.9531 L250.5626,50.9531 L250.5626,38.5625 L258.2814,38.5625 L258.2814,40.7188 L253.0158,40.7188 L253.0158,43.3906 L257.7814,43.3906 L257.7814,45.5469 L253.0158,45.5469 L253.0158,48.7969 L258.2814,48.7969 L258.2814,50.9531 Z "/><text fill="#000000" font-family="sans-serif" font-size="12" lengthAdjust="spacingAndGlyphs" textLength="76" x="268.172" y="49.1074">ユーザカテゴリ</text><line style="stroke: #A80036; stroke-width: 1.5;" x1="240.172" x2="346.172" y1="60.9531" y2="60.9531"/><ellipse cx="250.172" cy="72.8555" fill="#000000" rx="3" ry="3" style="stroke: #000000; stroke-width: 1.0;"/><text fill="#000000" font-family="sans-serif" font-size="11" lengthAdjust="spacingAndGlyphs" textLength="42" x="259.172" y="75.1636">ユーザID</text><line style="stroke: #A80036; stroke-width: 1.0;" x1="240.172" x2="346.172" y1="81.7578" y2="81.7578"/><ellipse cx="250.172" cy="93.6602" fill="#000000" rx="3" ry="3" style="stroke: #000000; stroke-width: 1.0;"/><text fill="#000000" font-family="sans-serif" font-size="11" lengthAdjust="spacingAndGlyphs" textLength="70" x="259.172" y="95.9683">プレミアム会員</text><!--class カテゴリ--><rect fill="#FEFECE" filter="url(#fxc4npew20g2r)" height="73.6094" id="カテゴリ" style="stroke: #A80036; stroke-width: 1.5;" width="75" x="70.672" y="366.9531"/><ellipse cx="86.122" cy="382.9531" fill="#ADD1B2" rx="11" ry="11" style="stroke: #A80036; stroke-width: 1.0;"/><path d="M90.2314,388.9531 L82.5126,388.9531 L82.5126,376.5625 L90.2314,376.5625 L90.2314,378.7188 L84.9658,378.7188 L84.9658,381.3906 L89.7314,381.3906 L89.7314,383.5469 L84.9658,383.5469 L84.9658,386.7969 L90.2314,386.7969 L90.2314,388.9531 Z "/><text fill="#000000" font-family="sans-serif" font-size="12" lengthAdjust="spacingAndGlyphs" textLength="42" x="100.222" y="387.1074">カテゴリ</text><line style="stroke: #A80036; stroke-width: 1.5;" x1="71.672" x2="144.672" y1="398.9531" y2="398.9531"/><ellipse cx="81.672" cy="410.8555" fill="#000000" rx="3" ry="3" style="stroke: #000000; stroke-width: 1.0;"/><text fill="#000000" font-family="sans-serif" font-size="11" lengthAdjust="spacingAndGlyphs" textLength="49" x="90.672" y="413.1636">カテゴリID</text><line style="stroke: #A80036; stroke-width: 1.0;" x1="71.672" x2="144.672" y1="419.7578" y2="419.7578"/><ellipse cx="81.672" cy="431.6602" fill="#000000" rx="3" ry="3" style="stroke: #000000; stroke-width: 1.0;"/><text fill="#000000" font-family="sans-serif" font-size="11" lengthAdjust="spacingAndGlyphs" textLength="38" x="90.672" y="433.9683">カテゴリ</text><!--class スポットカテゴリ--><rect fill="#FEFECE" filter="url(#fxc4npew20g2r)" height="86.4141" id="スポットカテゴリ" style="stroke: #A80036; stroke-width: 1.5;" width="114" x="51.172" y="539.4531"/><ellipse cx="66.172" cy="555.4531" fill="#ADD1B2" rx="11" ry="11" style="stroke: #A80036; stroke-width: 1.0;"/><path d="M70.2814,561.4531 L62.5626,561.4531 L62.5626,549.0625 L70.2814,549.0625 L70.2814,551.2188 L65.0158,551.2188 L65.0158,553.8906 L69.7814,553.8906 L69.7814,556.0469 L65.0158,556.0469 L65.0158,559.2969 L70.2814,559.2969 L70.2814,561.4531 Z "/><text fill="#000000" font-family="sans-serif" font-size="12" lengthAdjust="spacingAndGlyphs" textLength="82" x="80.172" y="559.6074">スポットカテゴリ</text><line style="stroke: #A80036; stroke-width: 1.5;" x1="52.172" x2="164.172" y1="571.4531" y2="571.4531"/><ellipse cx="62.172" cy="583.3555" fill="#000000" rx="3" ry="3" style="stroke: #000000; stroke-width: 1.0;"/><text fill="#000000" font-family="sans-serif" font-size="11" lengthAdjust="spacingAndGlyphs" textLength="47" x="71.172" y="585.6636">スポットID</text><ellipse cx="62.172" cy="596.1602" fill="#000000" rx="3" ry="3" style="stroke: #000000; stroke-width: 1.0;"/><text fill="#000000" font-family="sans-serif" font-size="11" lengthAdjust="spacingAndGlyphs" textLength="49" x="71.172" y="598.4683">カテゴリID</text><line style="stroke: #A80036; stroke-width: 1.0;" x1="52.172" x2="164.172" y1="605.0625" y2="605.0625"/><ellipse cx="62.172" cy="616.9648" fill="#000000" rx="3" ry="3" style="stroke: #000000; stroke-width: 1.0;"/><text fill="#000000" font-family="sans-serif" font-size="11" lengthAdjust="spacingAndGlyphs" textLength="85" x="71.172" y="619.2729">スポットカテゴリID</text><!--class アクセス--><rect fill="#FEFECE" filter="url(#fxc4npew20g2r)" height="73.6094" id="アクセス" style="stroke: #A80036; stroke-width: 1.5;" width="76" x="337.172" y="545.4531"/><ellipse cx="353.072" cy="561.4531" fill="#ADD1B2" rx="11" ry="11" style="stroke: #A80036; stroke-width: 1.0;"/><path d="M357.1814,567.4531 L349.4626,567.4531 L349.4626,555.0625 L357.1814,555.0625 L357.1814,557.2188 L351.9158,557.2188 L351.9158,559.8906 L356.6814,559.8906 L356.6814,562.0469 L351.9158,562.0469 L351.9158,565.2969 L357.1814,565.2969 L357.1814,567.4531 Z "/><text fill="#000000" font-family="sans-serif" font-size="12" lengthAdjust="spacingAndGlyphs" textLength="42" x="367.272" y="565.6074">アクセス</text><line style="stroke: #A80036; stroke-width: 1.5;" x1="338.172" x2="412.172" y1="577.4531" y2="577.4531"/><ellipse cx="348.172" cy="589.3555" fill="#000000" rx="3" ry="3" style="stroke: #000000; stroke-width: 1.0;"/><text fill="#000000" font-family="sans-serif" font-size="11" lengthAdjust="spacingAndGlyphs" textLength="50" x="357.172" y="591.6636">アクセスID</text><ellipse cx="348.172" cy="602.1602" fill="#000000" rx="3" ry="3" style="stroke: #000000; stroke-width: 1.0;"/><text fill="#000000" font-family="sans-serif" font-size="11" lengthAdjust="spacingAndGlyphs" textLength="47" x="357.172" y="604.4683">スポットID</text><line style="stroke: #A80036; stroke-width: 1.5;" x1="338.172" x2="412.172" y1="611.0625" y2="611.0625"/><!--class スポット詳細--><rect fill="#FEFECE" filter="url(#fxc4npew20g2r)" height="124.8281" id="スポット詳細" style="stroke: #A80036; stroke-width: 1.5;" width="102" x="200.172" y="519.9531"/><ellipse cx="217.872" cy="535.9531" fill="#ADD1B2" rx="11" ry="11" style="stroke: #A80036; stroke-width: 1.0;"/><path d="M221.9814,541.9531 L214.2626,541.9531 L214.2626,529.5625 L221.9814,529.5625 L221.9814,531.7188 L216.7157,531.7188 L216.7157,534.3906 L221.4814,534.3906 L221.4814,536.5469 L216.7157,536.5469 L216.7157,539.7969 L221.9814,539.7969 L221.9814,541.9531 Z "/><text fill="#000000" font-family="sans-serif" font-size="12" lengthAdjust="spacingAndGlyphs" textLength="64" x="232.472" y="540.1074">スポット詳細</text><line style="stroke: #A80036; stroke-width: 1.5;" x1="201.172" x2="301.172" y1="551.9531" y2="551.9531"/><ellipse cx="211.172" cy="563.8555" fill="#000000" rx="3" ry="3" style="stroke: #000000; stroke-width: 1.0;"/><text fill="#000000" font-family="sans-serif" font-size="11" lengthAdjust="spacingAndGlyphs" textLength="69" x="220.172" y="566.1636">スポット詳細ID</text><line style="stroke: #A80036; stroke-width: 1.0;" x1="201.172" x2="301.172" y1="572.7578" y2="572.7578"/><ellipse cx="211.172" cy="584.6602" fill="#000000" rx="3" ry="3" style="stroke: #000000; stroke-width: 1.0;"/><text fill="#000000" font-family="sans-serif" font-size="11" lengthAdjust="spacingAndGlyphs" textLength="47" x="220.172" y="586.9683">スポットID</text><ellipse cx="211.172" cy="597.4648" fill="#000000" rx="3" ry="3" style="stroke: #000000; stroke-width: 1.0;"/><text fill="#000000" font-family="sans-serif" font-size="11" lengthAdjust="spacingAndGlyphs" textLength="36" x="220.172" y="599.7729">タイトル</text><ellipse cx="211.172" cy="610.2695" fill="#000000" rx="3" ry="3" style="stroke: #000000; stroke-width: 1.0;"/><text fill="#000000" font-family="sans-serif" font-size="11" lengthAdjust="spacingAndGlyphs" textLength="22" x="220.172" y="612.5776">本文</text><ellipse cx="211.172" cy="623.0742" fill="#000000" rx="3" ry="3" style="stroke: #000000; stroke-width: 1.0;"/><text fill="#000000" font-family="sans-serif" font-size="11" lengthAdjust="spacingAndGlyphs" textLength="76" x="220.172" y="625.3823">おすすめポイント</text><ellipse cx="211.172" cy="635.8789" fill="#000000" rx="3" ry="3" style="stroke: #000000; stroke-width: 1.0;"/><text fill="#000000" font-family="sans-serif" font-size="11" lengthAdjust="spacingAndGlyphs" textLength="44" x="220.172" y="638.187">投稿日時</text><!--class フォロー--><rect fill="#FEFECE" filter="url(#fxc4npew20g2r)" height="86.4141" id="フォロー" style="stroke: #A80036; stroke-width: 1.5;" width="105" x="307.672" y="360.9531"/><ellipse cx="337.072" cy="376.9531" fill="#ADD1B2" rx="11" ry="11" style="stroke: #A80036; stroke-width: 1.0;"/><path d="M341.1814,382.9531 L333.4626,382.9531 L333.4626,370.5625 L341.1814,370.5625 L341.1814,372.7188 L335.9158,372.7188 L335.9158,375.3906 L340.6814,375.3906 L340.6814,377.5469 L335.9158,377.5469 L335.9158,380.7969 L341.1814,380.7969 L341.1814,382.9531 Z "/><text fill="#000000" font-family="sans-serif" font-size="12" lengthAdjust="spacingAndGlyphs" textLength="41" x="354.272" y="381.1074">フォロー</text><line style="stroke: #A80036; stroke-width: 1.5;" x1="308.672" x2="411.672" y1="392.9531" y2="392.9531"/><ellipse cx="318.672" cy="404.8555" fill="#000000" rx="3" ry="3" style="stroke: #000000; stroke-width: 1.0;"/><text fill="#000000" font-family="sans-serif" font-size="11" lengthAdjust="spacingAndGlyphs" textLength="48" x="327.672" y="407.1636">フォローID</text><line style="stroke: #A80036; stroke-width: 1.0;" x1="308.672" x2="411.672" y1="413.7578" y2="413.7578"/><ellipse cx="318.672" cy="425.6602" fill="#000000" rx="3" ry="3" style="stroke: #000000; stroke-width: 1.0;"/><text fill="#000000" font-family="sans-serif" font-size="11" lengthAdjust="spacingAndGlyphs" textLength="42" x="327.672" y="427.9683">ユーザID</text><ellipse cx="318.672" cy="438.4648" fill="#000000" rx="3" ry="3" style="stroke: #000000; stroke-width: 1.0;"/><text fill="#000000" font-family="sans-serif" font-size="11" lengthAdjust="spacingAndGlyphs" textLength="79" x="327.672" y="440.7729">フォローユーザID</text><!--link ユーザ to スポット--><path d="M267.167,295.9971 C261.747,310.4921 256.063,325.6921 250.737,339.9351 " fill="none" id="ユーザ-スポット" style="stroke: #A80036; stroke-width: 1.0; stroke-dasharray: 7.0,7.0;"/><line style="stroke: #A80036; stroke-width: 1.0;" x1="250.6206" x2="253.439" y1="340.2457" y2="349.8403"/><line style="stroke: #A80036; stroke-width: 1.0;" x1="250.6206" x2="242.199" y1="340.2457" y2="345.6379"/><line style="stroke: #A80036; stroke-width: 1.0;" x1="250.6206" x2="247.819" y1="340.2457" y2="347.7391"/><line style="stroke: #A80036; stroke-width: 1.0;" x1="255.0677" x2="247.5743" y1="339.7732" y2="336.9716"/><line style="stroke: #A80036; stroke-width: 1.0;" x1="264.9405" x2="272.4339" y1="290.53" y2="293.3316"/><line style="stroke: #A80036; stroke-width: 1.0;" x1="263.8899" x2="271.3833" y1="293.34" y2="296.1417"/><line style="stroke: #A80036; stroke-width: 1.0;" x1="267.2864" x2="270.088" y1="295.6775" y2="288.1841"/><!--link ユーザ to いいね--><path d="M341.832,254.3551 C373.481,275.5171 412.109,307.7901 430.172,347.9531 C483.638,466.8331 454.734,626.4881 435.656,702.7725 " fill="none" id="ユーザ-いいね" style="stroke: #A80036; stroke-width: 1.0; stroke-dasharray: 7.0,7.0;"/><line style="stroke: #A80036; stroke-width: 1.0;" x1="435.5924" x2="439.4276" y1="703.0217" y2="712.2571"/><line style="stroke: #A80036; stroke-width: 1.0;" x1="435.5924" x2="427.8004" y1="703.0217" y2="709.2894"/><line style="stroke: #A80036; stroke-width: 1.0;" x1="435.5924" x2="433.614" y1="703.0217" y2="710.7732"/><line style="stroke: #A80036; stroke-width: 1.0;" x1="439.9628" x2="432.2113" y1="702.0731" y2="700.0946"/><line style="stroke: #A80036; stroke-width: 1.0;" x1="335.9415" x2="340.3199" y1="255.2831" y2="248.5876"/><line style="stroke: #A80036; stroke-width: 1.0;" x1="338.4523" x2="342.8308" y1="256.925" y2="250.2295"/><line style="stroke: #A80036; stroke-width: 1.0;" x1="341.4785" x2="334.783" y1="254.1245" y2="249.7461"/><!--link スポット詳細 to コメント--><path d="M251.172,653.2691 C251.172,667.8111 251.172,682.8691 251.172,696.5465 " fill="none" id="スポット詳細-コメント" style="stroke: #A80036; stroke-width: 1.0; stroke-dasharray: 7.0,7.0;"/><line style="stroke: #A80036; stroke-width: 1.0;" x1="251.172" x2="257.172" y1="696.8677" y2="704.8677"/><line style="stroke: #A80036; stroke-width: 1.0;" x1="251.172" x2="245.172" y1="696.8677" y2="704.8677"/><line style="stroke: #A80036; stroke-width: 1.0;" x1="251.172" x2="251.172" y1="696.8677" y2="704.8677"/><line style="stroke: #A80036; stroke-width: 1.0;" x1="255.172" x2="247.172" y1="694.8677" y2="694.8677"/><line style="stroke: #A80036; stroke-width: 1.0;" x1="247.172" x2="255.172" y1="649.2651" y2="649.2651"/><line style="stroke: #A80036; stroke-width: 1.0;" x1="247.172" x2="255.172" y1="652.2651" y2="652.2651"/><line style="stroke: #A80036; stroke-width: 1.0;" x1="251.172" x2="251.172" y1="653.2651" y2="645.2651"/><!--link スポット to スポットカテゴリ--><path d="M185.358,466.9711 C170.889,488.4321 154.884,512.1701 141.217,532.4401 " fill="none" id="スポット-スポットカテゴリ" style="stroke: #A80036; stroke-width: 1.0; stroke-dasharray: 7.0,7.0;"/><line style="stroke: #A80036; stroke-width: 1.0;" x1="141.1492" x2="141.6534" y1="532.5392" y2="542.5265"/><line style="stroke: #A80036; stroke-width: 1.0;" x1="141.1492" x2="131.7026" y1="532.5392" y2="535.8197"/><line style="stroke: #A80036; stroke-width: 1.0;" x1="141.1492" x2="136.678" y1="532.5392" y2="539.1731"/><line style="stroke: #A80036; stroke-width: 1.0;" x1="145.5839" x2="138.95" y1="533.1163" y2="528.6452"/><line style="stroke: #A80036; stroke-width: 1.0;" x1="184.2932" x2="190.926" y1="461.3941" y2="465.8669"/><line style="stroke: #A80036; stroke-width: 1.0;" x1="182.6159" x2="189.2487" y1="463.8814" y2="468.3542"/><line style="stroke: #A80036; stroke-width: 1.0;" x1="185.3732" x2="189.846" y1="466.9469" y2="460.3141"/><!--link カテゴリ to スポットカテゴリ--><path d="M108.172,449.3751 C108.172,474.2061 108.172,505.2421 108.172,530.9881 " fill="none" id="カテゴリ-スポットカテゴリ" style="stroke: #A80036; stroke-width: 1.0; stroke-dasharray: 7.0,7.0;"/><line style="stroke: #A80036; stroke-width: 1.0;" x1="108.172" x2="114.172" y1="531.1471" y2="539.1471"/><line style="stroke: #A80036; stroke-width: 1.0;" x1="108.172" x2="102.172" y1="531.1471" y2="539.1471"/><line style="stroke: #A80036; stroke-width: 1.0;" x1="108.172" x2="108.172" y1="531.1471" y2="539.1471"/><line style="stroke: #A80036; stroke-width: 1.0;" x1="112.172" x2="104.172" y1="529.1471" y2="529.1471"/><line style="stroke: #A80036; stroke-width: 1.0;" x1="104.172" x2="112.172" y1="445.0961" y2="445.0961"/><line style="stroke: #A80036; stroke-width: 1.0;" x1="104.172" x2="112.172" y1="448.0961" y2="448.0961"/><line style="stroke: #A80036; stroke-width: 1.0;" x1="108.172" x2="108.172" y1="449.0961" y2="441.0961"/><!--link スポット to スポット詳細--><path d="M235.802,468.4181 C237.705,482.4131 239.731,497.3141 241.667,511.5491 " fill="none" id="スポット-スポット詳細" style="stroke: #A80036; stroke-width: 1.0; stroke-dasharray: 7.0,7.0;"/><line style="stroke: #A80036; stroke-width: 1.0;" x1="241.7169" x2="248.7394" y1="511.914" y2="519.0333"/><line style="stroke: #A80036; stroke-width: 1.0;" x1="241.7169" x2="236.8486" y1="511.914" y2="520.649"/><line style="stroke: #A80036; stroke-width: 1.0;" x1="241.7169" x2="242.794" y1="511.914" y2="519.8411"/><line style="stroke: #A80036; stroke-width: 1.0;" x1="245.4111" x2="237.484" y1="509.3936" y2="510.4708"/><line style="stroke: #A80036; stroke-width: 1.0;" x1="231.2758" x2="239.2028" y1="464.8169" y2="463.7383"/><line style="stroke: #A80036; stroke-width: 1.0;" x1="231.6802" x2="239.6072" y1="467.7895" y2="466.7109"/><line style="stroke: #A80036; stroke-width: 1.0;" x1="235.7785" x2="234.7" y1="468.2411" y2="460.3141"/><!--link ユーザ to フォロー--><path d="M319.528,295.8831 C326.765,314.9491 334.469,335.2441 341.202,352.9811 " fill="none" id="ユーザ-フォロー" style="stroke: #A80036; stroke-width: 1.0; stroke-dasharray: 7.0,7.0;"/><line style="stroke: #A80036; stroke-width: 1.0;" x1="341.3824" x2="349.8313" y1="353.4571" y2="358.8064"/><line style="stroke: #A80036; stroke-width: 1.0;" x1="341.3824" x2="338.6127" y1="353.4571" y2="363.0659"/><line style="stroke: #A80036; stroke-width: 1.0;" x1="341.3824" x2="344.222" y1="353.4571" y2="360.9361"/><line style="stroke: #A80036; stroke-width: 1.0;" x1="344.412" x2="336.9329" y1="350.1675" y2="353.0071"/><line style="stroke: #A80036; stroke-width: 1.0;" x1="314.2848" x2="321.7641" y1="293.3432" y2="290.5044"/><line style="stroke: #A80036; stroke-width: 1.0;" x1="315.3493" x2="322.8287" y1="296.148" y2="293.3091"/><line style="stroke: #A80036; stroke-width: 1.0;" x1="319.4439" x2="316.605" y1="295.6635" y2="288.1841"/><!--link ユーザカテゴリ to ユーザ--><path d="M293.172,111.2261 C293.172,124.7381 293.172,139.9381 293.172,154.7091 " fill="none" id="ユーザカテゴリ-ユーザ" style="stroke: #A80036; stroke-width: 1.0; stroke-dasharray: 7.0,7.0;"/><line style="stroke: #A80036; stroke-width: 1.0;" x1="293.172" x2="299.172" y1="154.8571" y2="162.8571"/><line style="stroke: #A80036; stroke-width: 1.0;" x1="293.172" x2="287.172" y1="154.8571" y2="162.8571"/><line style="stroke: #A80036; stroke-width: 1.0;" x1="293.172" x2="293.172" y1="154.8571" y2="162.8571"/><line style="stroke: #A80036; stroke-width: 1.0;" x1="297.172" x2="289.172" y1="152.8571" y2="152.8571"/><line style="stroke: #A80036; stroke-width: 1.0;" x1="289.172" x2="297.172" y1="107.0871" y2="107.0871"/><line style="stroke: #A80036; stroke-width: 1.0;" x1="289.172" x2="297.172" y1="110.0871" y2="110.0871"/><line style="stroke: #A80036; stroke-width: 1.0;" x1="293.172" x2="293.172" y1="111.0871" y2="103.0871"/><!--link スポット詳細 to いいね--><path d="M308.304,637.7611 C331.371,659.6891 357.573,684.5961 379.122,705.0798 " fill="none" id="スポット詳細-いいね" style="stroke: #A80036; stroke-width: 1.0; stroke-dasharray: 7.0,7.0;"/><line style="stroke: #A80036; stroke-width: 1.0;" x1="379.2715" x2="389.2037" y1="705.2221" y2="706.3849"/><line style="stroke: #A80036; stroke-width: 1.0;" x1="379.2715" x2="380.9363" y1="705.2221" y2="715.0826"/><line style="stroke: #A80036; stroke-width: 1.0;" x1="379.2715" x2="385.07" y1="705.2221" y2="710.7337"/><line style="stroke: #A80036; stroke-width: 1.0;" x1="380.5777" x2="375.0661" y1="700.945" y2="706.7435"/><line style="stroke: #A80036; stroke-width: 1.0;" x1="302.4556" x2="307.967" y1="637.7212" y2="631.9226"/><line style="stroke: #A80036; stroke-width: 1.0;" x1="304.63" x2="310.1415" y1="639.788" y2="633.9894"/><line style="stroke: #A80036; stroke-width: 1.0;" x1="308.1106" x2="302.312" y1="637.5776" y2="632.0661"/><!--link スポット詳細 to 画像--><path d="M193.765,635.0251 C164.658,661.1731 130.217,692.113 104.9309,714.829 " fill="none" id="スポット詳細-画像" style="stroke: #A80036; stroke-width: 1.0; stroke-dasharray: 7.0,7.0;"/><line style="stroke: #A80036; stroke-width: 1.0;" x1="104.6593" x2="102.7182" y1="715.0726" y2="724.8824"/><line style="stroke: #A80036; stroke-width: 1.0;" x1="104.6593" x2="94.6984" y1="715.0726" y2="715.9558"/><line style="stroke: #A80036; stroke-width: 1.0;" x1="104.6593" x2="98.7083" y1="715.0726" y2="720.4191"/><line style="stroke: #A80036; stroke-width: 1.0;" x1="108.8204" x2="103.4739" y1="716.7115" y2="710.7605"/><line style="stroke: #A80036; stroke-width: 1.0;" x1="194.3413" x2="199.6871" y1="629.1293" y2="635.0809"/><line style="stroke: #A80036; stroke-width: 1.0;" x1="192.1094" x2="197.4553" y1="631.134" y2="637.0856"/><line style="stroke: #A80036; stroke-width: 1.0;" x1="194.0384" x2="199.99" y1="634.778" y2="629.4321"/><!--link スポット to アクセス--><path d="M278.073,465.6561 C298.331,489.8161 321.157,517.0361 339.585,539.0131 " fill="none" id="スポット-アクセス" style="stroke: #A80036; stroke-width: 1.0; stroke-dasharray: 7.0,7.0;"/><line style="stroke: #A80036; stroke-width: 1.0;" x1="339.766" x2="349.5041" y1="539.2307" y2="541.5044"/><line style="stroke: #A80036; stroke-width: 1.0;" x1="339.766" x2="340.3099" y1="539.2307" y2="549.2159"/><line style="stroke: #A80036; stroke-width: 1.0;" x1="339.766" x2="344.907" y1="539.2307" y2="545.3601"/><line style="stroke: #A80036; stroke-width: 1.0;" x1="341.5455" x2="335.416" y1="535.1278" y2="540.2688"/><line style="stroke: #A80036; stroke-width: 1.0;" x1="272.289" x2="278.4192" y1="464.9843" y2="459.8441"/><line style="stroke: #A80036; stroke-width: 1.0;" x1="274.2165" x2="280.3467" y1="467.2831" y2="462.143"/><line style="stroke: #A80036; stroke-width: 1.0;" x1="277.9241" x2="272.784" y1="465.4793" y2="459.3491"/><!--link ユーザ to 画像--><path d="M243.25,236.9051 C187.12,251.4791 97.9849,283.6931 53.172,347.9531 C-22.505,456.4701 10.8354,514.5531 33.172,644.9531 C36.5263,664.5351 43.2566,685.3531 49.9996,703.0402 " fill="none" id="ユーザ-画像" style="stroke: #A80036; stroke-width: 1.0; stroke-dasharray: 7.0,7.0;"/><line style="stroke: #A80036; stroke-width: 1.0;" x1="50.1719" x2="58.6742" y1="703.4807" y2="708.7448"/><line style="stroke: #A80036; stroke-width: 1.0;" x1="50.1719" x2="47.499" y1="703.4807" y2="713.1169"/><line style="stroke: #A80036; stroke-width: 1.0;" x1="50.1719" x2="53.0866" y1="703.4807" y2="710.9308"/><line style="stroke: #A80036; stroke-width: 1.0;" x1="53.1683" x2="45.7181" y1="700.1608" y2="703.0755"/><line style="stroke: #A80036; stroke-width: 1.0;" x1="246.426" x2="248.3804" y1="231.9795" y2="239.7371"/><line style="stroke: #A80036; stroke-width: 1.0;" x1="243.5169" x2="245.4713" y1="232.7124" y2="240.47"/><line style="stroke: #A80036; stroke-width: 1.0;" x1="243.5244" x2="251.282" y1="236.8355" y2="234.8811"/><!--
@startuml
title ER図

entity ユーザ{
  * ユーザID
  - -
  * 氏名
  * ニックネーム
  * 性別
  * 居住地
  * ID
}

entity スポット{
  *スポットID
  - -
  * スポット名称{
  * 年代
  * 季節
  * 住所
}

entity 画像{
  * 画像ID
  - -
  * URL
}

entity コメント{
  * コメントID
  * スポット詳細ID
  - -
  * コメント
}

entity いいね{
  * いいねID
  - -
  * スポット詳細ID
}

entity ユーザカテゴリ{
  * ユーザID
  - -
  * プレミアム会員
}

entity カテゴリ{
  * カテゴリID
  - -
  * カテゴリ
}

entity スポットカテゴリ{
  * スポットID
  * カテゴリID
  - -
  * スポットカテゴリID
}

entity アクセス{
  * アクセスID
  * スポットID
}

entity スポット詳細{
  * スポット詳細ID
  - -
  * スポットID
  * タイトル
  * 本文
  * おすすめポイント
  * 投稿日時
}

entity フォロー{
  * フォローID
  - -
  * ユーザID
  * フォローユーザID
}


ユーザ ||..|{ スポット
ユーザ ||..|{ いいね
スポット詳細 ||..|{ コメント
スポット ||..|{ スポットカテゴリ
カテゴリ ||..|{ スポットカテゴリ
スポット ||..|{ スポット詳細
ユーザ ||..|{ フォロー
ユーザカテゴリ ||..|{ ユーザ
スポット詳細 ||..|{ いいね
スポット詳細 ||..|{ 画像
スポット ||..|{ アクセス
ユーザ ||..|{ 画像
@enduml

PlantUML version 1.2019.03(Sun Mar 10 11:04:44 UTC 2019)
(GPL source distribution)
Java Runtime: OpenJDK Runtime Environment
JVM: OpenJDK 64-Bit Server VM
Java Version: 1.8.0_212-8u212-b01-1~deb9u1-b01
Operating System: Linux
OS Version: 5.10.25-linuxkit
Default Encoding: UTF-8
Language: en
Country: null
--></g></svg>