<?xml version="1.0" encoding="UTF-8" standalone="no"?><svg xmlns="http://www.w3.org/2000/svg" xmlns:xlink="http://www.w3.org/1999/xlink" contentScriptType="application/ecmascript" contentStyleType="text/css" height="406px" preserveAspectRatio="none" style="width:229px;height:406px;" version="1.1" viewBox="0 0 229 406" width="229px" zoomAndPan="magnify"><defs><filter height="300%" id="f1zjrhom10q73" width="300%" x="-1" y="-1"><feGaussianBlur result="blurOut" stdDeviation="2.0"/><feColorMatrix in="blurOut" result="blurOut2" type="matrix" values="0 0 0 0 0 0 0 0 0 0 0 0 0 0 0 0 0 0 .4 0"/><feOffset dx="4.0" dy="4.0" in="blurOut2" result="blurOut3"/><feBlend in="SourceGraphic" in2="blurOut3" mode="normal"/></filter></defs><g><text fill="#000000" font-family="sans-serif" font-size="18" lengthAdjust="spacingAndGlyphs" textLength="77" x="80" y="16.708">ER図の例</text><!--class 支社--><rect fill="#FEFECE" filter="url(#f1zjrhom10q73)" height="73.6094" id="支社" style="stroke: #A80036; stroke-width: 1.5;" width="75" x="8.5" y="28.9531"/><ellipse cx="32.05" cy="44.9531" fill="#ADD1B2" rx="11" ry="11" style="stroke: #A80036; stroke-width: 1.0;"/><path d="M36.1594,50.9531 L28.4406,50.9531 L28.4406,38.5625 L36.1594,38.5625 L36.1594,40.7188 L30.8937,40.7188 L30.8937,43.3906 L35.6594,43.3906 L35.6594,45.5469 L30.8937,45.5469 L30.8937,48.7969 L36.1594,48.7969 L36.1594,50.9531 Z "/><text fill="#000000" font-family="sans-serif" font-size="12" lengthAdjust="spacingAndGlyphs" textLength="24" x="47.95" y="49.1074">支社</text><line style="stroke: #A80036; stroke-width: 1.5;" x1="9.5" x2="82.5" y1="60.9531" y2="60.9531"/><ellipse cx="19.5" cy="72.8555" fill="#000000" rx="3" ry="3" style="stroke: #000000; stroke-width: 1.0;"/><text fill="#000000" font-family="sans-serif" font-size="11" lengthAdjust="spacingAndGlyphs" textLength="49" x="28.5" y="75.1636">支社コード</text><line style="stroke: #A80036; stroke-width: 1.0;" x1="9.5" x2="82.5" y1="81.7578" y2="81.7578"/><ellipse cx="19.5" cy="93.6602" fill="#000000" rx="3" ry="3" style="stroke: #000000; stroke-width: 1.0;"/><text fill="#000000" font-family="sans-serif" font-size="11" lengthAdjust="spacingAndGlyphs" textLength="33" x="28.5" y="95.9683">支社名</text><!--class 支店--><rect fill="#FEFECE" filter="url(#f1zjrhom10q73)" height="86.4141" id="支店" style="stroke: #A80036; stroke-width: 1.5;" width="75" x="8.5" y="162.9531"/><ellipse cx="32.05" cy="178.9531" fill="#ADD1B2" rx="11" ry="11" style="stroke: #A80036; stroke-width: 1.0;"/><path d="M36.1594,184.9531 L28.4406,184.9531 L28.4406,172.5625 L36.1594,172.5625 L36.1594,174.7188 L30.8937,174.7188 L30.8937,177.3906 L35.6594,177.3906 L35.6594,179.5469 L30.8937,179.5469 L30.8937,182.7969 L36.1594,182.7969 L36.1594,184.9531 Z "/><text fill="#000000" font-family="sans-serif" font-size="12" lengthAdjust="spacingAndGlyphs" textLength="24" x="47.95" y="183.1074">支店</text><line style="stroke: #A80036; stroke-width: 1.5;" x1="9.5" x2="82.5" y1="194.9531" y2="194.9531"/><ellipse cx="19.5" cy="206.8555" fill="#000000" rx="3" ry="3" style="stroke: #000000; stroke-width: 1.0;"/><text fill="#000000" font-family="sans-serif" font-size="11" lengthAdjust="spacingAndGlyphs" textLength="49" x="28.5" y="209.1636">支社コード</text><ellipse cx="19.5" cy="219.6602" fill="#000000" rx="3" ry="3" style="stroke: #000000; stroke-width: 1.0;"/><text fill="#000000" font-family="sans-serif" font-size="11" lengthAdjust="spacingAndGlyphs" textLength="49" x="28.5" y="221.9683">支店コード</text><line style="stroke: #A80036; stroke-width: 1.0;" x1="9.5" x2="82.5" y1="228.5625" y2="228.5625"/><ellipse cx="19.5" cy="240.4648" fill="#000000" rx="3" ry="3" style="stroke: #000000; stroke-width: 1.0;"/><text fill="#000000" font-family="sans-serif" font-size="11" lengthAdjust="spacingAndGlyphs" textLength="33" x="28.5" y="242.7729">支店名</text><!--class 支店商品--><rect fill="#FEFECE" filter="url(#f1zjrhom10q73)" height="86.4141" id="支店商品" style="stroke: #A80036; stroke-width: 1.5;" width="80" x="6" y="308.9531"/><ellipse cx="21" cy="324.9531" fill="#ADD1B2" rx="11" ry="11" style="stroke: #A80036; stroke-width: 1.0;"/><path d="M25.1094,330.9531 L17.3906,330.9531 L17.3906,318.5625 L25.1094,318.5625 L25.1094,320.7188 L19.8438,320.7188 L19.8438,323.3906 L24.6094,323.3906 L24.6094,325.5469 L19.8438,325.5469 L19.8438,328.7969 L25.1094,328.7969 L25.1094,330.9531 Z "/><text fill="#000000" font-family="sans-serif" font-size="12" lengthAdjust="spacingAndGlyphs" textLength="48" x="35" y="329.1074">支店商品</text><line style="stroke: #A80036; stroke-width: 1.5;" x1="7" x2="85" y1="340.9531" y2="340.9531"/><ellipse cx="17" cy="352.8555" fill="#000000" rx="3" ry="3" style="stroke: #000000; stroke-width: 1.0;"/><text fill="#000000" font-family="sans-serif" font-size="11" lengthAdjust="spacingAndGlyphs" textLength="49" x="26" y="355.1636">支社コード</text><ellipse cx="17" cy="365.6602" fill="#000000" rx="3" ry="3" style="stroke: #000000; stroke-width: 1.0;"/><text fill="#000000" font-family="sans-serif" font-size="11" lengthAdjust="spacingAndGlyphs" textLength="49" x="26" y="367.9683">支店コード</text><ellipse cx="17" cy="378.4648" fill="#000000" rx="3" ry="3" style="stroke: #000000; stroke-width: 1.0;"/><text fill="#000000" font-family="sans-serif" font-size="11" lengthAdjust="spacingAndGlyphs" textLength="49" x="26" y="380.7729">商品コード</text><line style="stroke: #A80036; stroke-width: 1.5;" x1="7" x2="85" y1="387.3672" y2="387.3672"/><!--class 商品--><rect fill="#FEFECE" filter="url(#f1zjrhom10q73)" height="86.4141" id="商品" style="stroke: #A80036; stroke-width: 1.5;" width="97" x="119.5" y="162.9531"/><ellipse cx="152.95" cy="178.9531" fill="#ADD1B2" rx="11" ry="11" style="stroke: #A80036; stroke-width: 1.0;"/><path d="M157.0594,184.9531 L149.3406,184.9531 L149.3406,172.5625 L157.0594,172.5625 L157.0594,174.7188 L151.7938,174.7188 L151.7938,177.3906 L156.5594,177.3906 L156.5594,179.5469 L151.7938,179.5469 L151.7938,182.7969 L157.0594,182.7969 L157.0594,184.9531 Z "/><text fill="#000000" font-family="sans-serif" font-size="12" lengthAdjust="spacingAndGlyphs" textLength="24" x="171.05" y="183.1074">商品</text><line style="stroke: #A80036; stroke-width: 1.5;" x1="120.5" x2="215.5" y1="194.9531" y2="194.9531"/><ellipse cx="130.5" cy="206.8555" fill="#000000" rx="3" ry="3" style="stroke: #000000; stroke-width: 1.0;"/><text fill="#000000" font-family="sans-serif" font-size="11" lengthAdjust="spacingAndGlyphs" textLength="49" x="139.5" y="209.1636">商品コード</text><line style="stroke: #A80036; stroke-width: 1.0;" x1="120.5" x2="215.5" y1="215.7578" y2="215.7578"/><ellipse cx="130.5" cy="227.6602" fill="#000000" rx="3" ry="3" style="stroke: #000000; stroke-width: 1.0;"/><text fill="#000000" font-family="sans-serif" font-size="11" lengthAdjust="spacingAndGlyphs" textLength="33" x="139.5" y="229.9683">商品名</text><ellipse cx="130.5" cy="240.4648" fill="#000000" rx="3" ry="3" style="stroke: #000000; stroke-width: 1.0;"/><text fill="#000000" font-family="sans-serif" font-size="11" lengthAdjust="spacingAndGlyphs" textLength="71" x="139.5" y="242.7729">商品分類コード</text><!--class 商品分類--><rect fill="#FEFECE" filter="url(#f1zjrhom10q73)" height="73.6094" id="商品分類" style="stroke: #A80036; stroke-width: 1.5;" width="97" x="121.5" y="314.9531"/><ellipse cx="144.15" cy="330.9531" fill="#ADD1B2" rx="11" ry="11" style="stroke: #A80036; stroke-width: 1.0;"/><path d="M148.2594,336.9531 L140.5406,336.9531 L140.5406,324.5625 L148.2594,324.5625 L148.2594,326.7188 L142.9938,326.7188 L142.9938,329.3906 L147.7594,329.3906 L147.7594,331.5469 L142.9938,331.5469 L142.9938,334.7969 L148.2594,334.7969 L148.2594,336.9531 Z "/><text fill="#000000" font-family="sans-serif" font-size="12" lengthAdjust="spacingAndGlyphs" textLength="48" x="159.85" y="335.1074">商品分類</text><line style="stroke: #A80036; stroke-width: 1.5;" x1="122.5" x2="217.5" y1="346.9531" y2="346.9531"/><ellipse cx="132.5" cy="358.8555" fill="#000000" rx="3" ry="3" style="stroke: #000000; stroke-width: 1.0;"/><text fill="#000000" font-family="sans-serif" font-size="11" lengthAdjust="spacingAndGlyphs" textLength="71" x="141.5" y="361.1636">商品分類コード</text><line style="stroke: #A80036; stroke-width: 1.0;" x1="122.5" x2="217.5" y1="367.7578" y2="367.7578"/><ellipse cx="132.5" cy="379.6602" fill="#000000" rx="3" ry="3" style="stroke: #000000; stroke-width: 1.0;"/><text fill="#000000" font-family="sans-serif" font-size="11" lengthAdjust="spacingAndGlyphs" textLength="33" x="141.5" y="381.9683">分類名</text><!--link 支社 to 支店--><path d="M46,111.5571 C46,125.2431 46,140.3991 46,154.4501 " fill="none" id="支社-支店" style="stroke: #A80036; stroke-width: 1.0; stroke-dasharray: 7.0,7.0;"/><line style="stroke: #A80036; stroke-width: 1.0;" x1="46" x2="52" y1="154.5751" y2="162.5751"/><line style="stroke: #A80036; stroke-width: 1.0;" x1="46" x2="40" y1="154.5751" y2="162.5751"/><line style="stroke: #A80036; stroke-width: 1.0;" x1="46" x2="46" y1="154.5751" y2="162.5751"/><line style="stroke: #A80036; stroke-width: 1.0;" x1="50" x2="42" y1="152.5751" y2="152.5751"/><line style="stroke: #A80036; stroke-width: 1.0;" x1="42" x2="50" y1="107.2111" y2="107.2111"/><line style="stroke: #A80036; stroke-width: 1.0;" x1="42" x2="50" y1="110.2111" y2="110.2111"/><line style="stroke: #A80036; stroke-width: 1.0;" x1="46" x2="46" y1="111.2111" y2="103.2111"/><!--link 支店 to 支店商品--><path d="M46,257.0841 C46,271.1351 46,286.4151 46,300.4868 " fill="none" id="支店-支店商品" style="stroke: #A80036; stroke-width: 1.0; stroke-dasharray: 7.0,7.0;"/><line style="stroke: #A80036; stroke-width: 1.0;" x1="46" x2="52" y1="300.6137" y2="308.6137"/><line style="stroke: #A80036; stroke-width: 1.0;" x1="46" x2="40" y1="300.6137" y2="308.6137"/><line style="stroke: #A80036; stroke-width: 1.0;" x1="46" x2="46" y1="300.6137" y2="308.6137"/><line style="stroke: #A80036; stroke-width: 1.0;" x1="50" x2="42" y1="298.6137" y2="298.6137"/><line style="stroke: #A80036; stroke-width: 1.0;" x1="42" x2="50" y1="252.9911" y2="252.9911"/><line style="stroke: #A80036; stroke-width: 1.0;" x1="42" x2="50" y1="255.9911" y2="255.9911"/><line style="stroke: #A80036; stroke-width: 1.0;" x1="46" x2="46" y1="256.9911" y2="248.9911"/><!--link 商品 to 支店商品--><path d="M127.076,255.2571 C114.264,270.3791 100.1217,287.0721 87.2848,302.2235 " fill="none" id="商品-支店商品" style="stroke: #A80036; stroke-width: 1.0; stroke-dasharray: 7.0,7.0;"/><line style="stroke: #A80036; stroke-width: 1.0;" x1="87.0423" x2="86.4488" y1="302.5099" y2="312.4923"/><line style="stroke: #A80036; stroke-width: 1.0;" x1="87.0423" x2="77.293" y1="302.5099" y2="304.7352"/><line style="stroke: #A80036; stroke-width: 1.0;" x1="87.0423" x2="81.8709" y1="302.5099" y2="308.6137"/><line style="stroke: #A80036; stroke-width: 1.0;" x1="91.3871" x2="85.2832" y1="303.5696" y2="298.3982"/><line style="stroke: #A80036; stroke-width: 1.0;" x1="126.7474" x2="132.8514" y1="249.4575" y2="254.6287"/><line style="stroke: #A80036; stroke-width: 1.0;" x1="124.8082" x2="130.9122" y1="251.7465" y2="256.9177"/><line style="stroke: #A80036; stroke-width: 1.0;" x1="127.2138" x2="132.385" y1="255.0951" y2="248.9911"/><!--link 商品 to 商品分類--><path d="M168.698,257.1991 C168.919,273.1101 169.162,290.5851 169.377,306.0931 " fill="none" id="商品-商品分類" style="stroke: #A80036; stroke-width: 1.0; stroke-dasharray: 7.0,7.0;"/><line style="stroke: #A80036; stroke-width: 1.0;" x1="173.437" x2="165.4378" y1="310.4283" y2="310.5395"/><line style="stroke: #A80036; stroke-width: 1.0;" x1="173.3954" x2="165.3961" y1="307.4286" y2="307.5398"/><line style="stroke: #A80036; stroke-width: 1.0;" x1="169.3818" x2="169.493" y1="306.4843" y2="314.4835"/><line style="stroke: #A80036; stroke-width: 1.0;" x1="168.6954" x2="162.5846" y1="256.9903" y2="249.0747"/><line style="stroke: #A80036; stroke-width: 1.0;" x1="168.6954" x2="174.5834" y1="256.9903" y2="248.9076"/><line style="stroke: #A80036; stroke-width: 1.0;" x1="168.6954" x2="168.584" y1="256.9903" y2="248.9911"/><line style="stroke: #A80036; stroke-width: 1.0;" x1="164.7237" x2="172.7229" y1="259.0459" y2="258.9344"/><!--
@startuml
title ER図の例

entity 支社{
  * 支社コード
  - -
  * 支社名
}

entity 支店{
  * 支社コード
  * 支店コード
  - -
  * 支店名
}

entity 支店商品{
  * 支社コード
  * 支店コード
  * 商品コード
}

entity 商品{
  * 商品コード
  - -
  * 商品名
  * 商品分類コード
}

entity 商品分類{
  * 商品分類コード
  - -
  * 分類名
}


支社 ||..|{ 支店
支店 ||..|{ 支店商品
商品 ||..|{ 支店商品
商品 }|..|| 商品分類

@enduml

PlantUML version 1.2019.03(Sun Mar 10 11:04:44 UTC 2019)
(GPL source distribution)
Java Runtime: OpenJDK Runtime Environment
JVM: OpenJDK 64-Bit Server VM
Java Version: 1.8.0_212-8u212-b01-1~deb9u1-b01
Operating System: Linux
OS Version: 5.10.25-linuxkit
Default Encoding: UTF-8
Language: en
Country: null
--></g></svg>