<?xml version="1.0" encoding="UTF-8" standalone="no"?><svg xmlns="http://www.w3.org/2000/svg" xmlns:xlink="http://www.w3.org/1999/xlink" contentScriptType="application/ecmascript" contentStyleType="text/css" height="527px" preserveAspectRatio="none" style="width:201px;height:527px;" version="1.1" viewBox="0 0 201 527" width="201px" zoomAndPan="magnify"><defs><filter height="300%" id="f4lvzed4l0myj" width="300%" x="-1" y="-1"><feGaussianBlur result="blurOut" stdDeviation="2.0"/><feColorMatrix in="blurOut" result="blurOut2" type="matrix" values="0 0 0 0 0 0 0 0 0 0 0 0 0 0 0 0 0 0 .4 0"/><feOffset dx="4.0" dy="4.0" in="blurOut2" result="blurOut3"/><feBlend in="SourceGraphic" in2="blurOut3" mode="normal"/></filter></defs><g><text fill="#000000" font-family="sans-serif" font-size="18" lengthAdjust="spacingAndGlyphs" textLength="187" x="2" y="16.708">サブスクリプションモデル</text><!--class ユーザ--><rect fill="#FEFECE" filter="url(#f4lvzed4l0myj)" height="73.6094" id="ユーザ" style="stroke: #A80036; stroke-width: 1.5;" width="80" x="49.5" y="28.9531"/><ellipse cx="70.8" cy="44.9531" fill="#ADD1B2" rx="11" ry="11" style="stroke: #A80036; stroke-width: 1.0;"/><path d="M74.9094,50.9531 L67.1906,50.9531 L67.1906,38.5625 L74.9094,38.5625 L74.9094,40.7188 L69.6438,40.7188 L69.6438,43.3906 L74.4094,43.3906 L74.4094,45.5469 L69.6438,45.5469 L69.6438,48.7969 L74.9094,48.7969 L74.9094,50.9531 Z "/><text fill="#000000" font-family="sans-serif" font-size="12" lengthAdjust="spacingAndGlyphs" textLength="34" x="86.2" y="49.1074">ユーザ</text><line style="stroke: #A80036; stroke-width: 1.5;" x1="50.5" x2="128.5" y1="60.9531" y2="60.9531"/><ellipse cx="60.5" cy="72.8555" fill="#000000" rx="3" ry="3" style="stroke: #000000; stroke-width: 1.0;"/><text fill="#000000" font-family="sans-serif" font-size="11" lengthAdjust="spacingAndGlyphs" textLength="10" x="69.5" y="75.1636">id</text><ellipse cx="60.5" cy="85.6602" fill="#000000" rx="3" ry="3" style="stroke: #000000; stroke-width: 1.0;"/><text fill="#000000" font-family="sans-serif" font-size="11" lengthAdjust="spacingAndGlyphs" textLength="54" x="69.5" y="87.9683">accountId</text><line style="stroke: #A80036; stroke-width: 1.5;" x1="50.5" x2="128.5" y1="94.5625" y2="94.5625"/><!--class アカウント--><rect fill="#FEFECE" filter="url(#f4lvzed4l0myj)" height="73.6094" id="アカウント" style="stroke: #A80036; stroke-width: 1.5;" width="113" x="33" y="162.9531"/><ellipse cx="61.95" cy="178.9531" fill="#ADD1B2" rx="11" ry="11" style="stroke: #A80036; stroke-width: 1.0;"/><path d="M66.0594,184.9531 L58.3406,184.9531 L58.3406,172.5625 L66.0594,172.5625 L66.0594,174.7188 L60.7938,174.7188 L60.7938,177.3906 L65.5594,177.3906 L65.5594,179.5469 L60.7938,179.5469 L60.7938,182.7969 L66.0594,182.7969 L66.0594,184.9531 Z "/><text fill="#000000" font-family="sans-serif" font-size="12" lengthAdjust="spacingAndGlyphs" textLength="50" x="79.05" y="183.1074">アカウント</text><line style="stroke: #A80036; stroke-width: 1.5;" x1="34" x2="145" y1="194.9531" y2="194.9531"/><ellipse cx="44" cy="206.8555" fill="#000000" rx="3" ry="3" style="stroke: #000000; stroke-width: 1.0;"/><text fill="#000000" font-family="sans-serif" font-size="11" lengthAdjust="spacingAndGlyphs" textLength="10" x="53" y="209.1636">id</text><ellipse cx="44" cy="219.6602" fill="#000000" rx="3" ry="3" style="stroke: #000000; stroke-width: 1.0;"/><text fill="#000000" font-family="sans-serif" font-size="11" lengthAdjust="spacingAndGlyphs" textLength="87" x="53" y="221.9683">支払い手段の情報</text><line style="stroke: #A80036; stroke-width: 1.5;" x1="34" x2="145" y1="228.5625" y2="228.5625"/><!--class リレーション--><rect fill="#FEFECE" filter="url(#f4lvzed4l0myj)" height="86.4141" id="リレーション" style="stroke: #A80036; stroke-width: 1.5;" width="106" x="36.5" y="296.9531"/><ellipse cx="58.25" cy="312.9531" fill="#ADD1B2" rx="11" ry="11" style="stroke: #A80036; stroke-width: 1.0;"/><path d="M62.3594,318.9531 L54.6406,318.9531 L54.6406,306.5625 L62.3594,306.5625 L62.3594,308.7188 L57.0938,308.7188 L57.0938,311.3906 L61.8594,311.3906 L61.8594,313.5469 L57.0938,313.5469 L57.0938,316.7969 L62.3594,316.7969 L62.3594,318.9531 Z "/><text fill="#000000" font-family="sans-serif" font-size="12" lengthAdjust="spacingAndGlyphs" textLength="59" x="73.75" y="317.1074">リレーション</text><line style="stroke: #A80036; stroke-width: 1.5;" x1="37.5" x2="141.5" y1="328.9531" y2="328.9531"/><ellipse cx="47.5" cy="340.8555" fill="#000000" rx="3" ry="3" style="stroke: #000000; stroke-width: 1.0;"/><text fill="#000000" font-family="sans-serif" font-size="11" lengthAdjust="spacingAndGlyphs" textLength="10" x="56.5" y="343.1636">id</text><ellipse cx="47.5" cy="353.6602" fill="#000000" rx="3" ry="3" style="stroke: #000000; stroke-width: 1.0;"/><text fill="#000000" font-family="sans-serif" font-size="11" lengthAdjust="spacingAndGlyphs" textLength="54" x="56.5" y="355.9683">accountId</text><ellipse cx="47.5" cy="366.4648" fill="#000000" rx="3" ry="3" style="stroke: #000000; stroke-width: 1.0;"/><text fill="#000000" font-family="sans-serif" font-size="11" lengthAdjust="spacingAndGlyphs" textLength="80" x="56.5" y="368.7729">subscriptionId</text><line style="stroke: #A80036; stroke-width: 1.5;" x1="37.5" x2="141.5" y1="375.3672" y2="375.3672"/><!--class サブスクリプション--><rect fill="#FEFECE" filter="url(#f4lvzed4l0myj)" height="73.6094" id="サブスクリプション" style="stroke: #A80036; stroke-width: 1.5;" width="125" x="27" y="442.9531"/><ellipse cx="42" cy="458.9531" fill="#ADD1B2" rx="11" ry="11" style="stroke: #A80036; stroke-width: 1.0;"/><path d="M46.1094,464.9531 L38.3906,464.9531 L38.3906,452.5625 L46.1094,452.5625 L46.1094,454.7188 L40.8438,454.7188 L40.8438,457.3906 L45.6094,457.3906 L45.6094,459.5469 L40.8438,459.5469 L40.8438,462.7969 L46.1094,462.7969 L46.1094,464.9531 Z "/><text fill="#000000" font-family="sans-serif" font-size="12" lengthAdjust="spacingAndGlyphs" textLength="93" x="56" y="463.1074">サブスクリプション</text><line style="stroke: #A80036; stroke-width: 1.5;" x1="28" x2="151" y1="474.9531" y2="474.9531"/><ellipse cx="38" cy="486.8555" fill="#000000" rx="3" ry="3" style="stroke: #000000; stroke-width: 1.0;"/><text fill="#000000" font-family="sans-serif" font-size="11" lengthAdjust="spacingAndGlyphs" textLength="10" x="47" y="489.1636">id</text><ellipse cx="38" cy="499.6602" fill="#000000" rx="3" ry="3" style="stroke: #000000; stroke-width: 1.0;"/><text fill="#000000" font-family="sans-serif" font-size="11" lengthAdjust="spacingAndGlyphs" textLength="44" x="47" y="501.9683">契約情報</text><line style="stroke: #A80036; stroke-width: 1.5;" x1="28" x2="151" y1="508.5625" y2="508.5625"/><!--link ユーザ to アカウント--><path d="M89.5,111.0971 C89.5,125.1781 89.5,140.7541 89.5,154.8331 " fill="none" id="ユーザ-アカウント" style="stroke: #A80036; stroke-width: 1.0; stroke-dasharray: 7.0,7.0;"/><line style="stroke: #A80036; stroke-width: 1.0;" x1="93.5" x2="85.5" y1="158.9271" y2="158.9271"/><line style="stroke: #A80036; stroke-width: 1.0;" x1="93.5" x2="85.5" y1="155.9271" y2="155.9271"/><line style="stroke: #A80036; stroke-width: 1.0;" x1="89.5" x2="89.5" y1="154.9271" y2="162.9271"/><line style="stroke: #A80036; stroke-width: 1.0;" x1="89.5" x2="83.5" y1="111.0231" y2="103.0231"/><line style="stroke: #A80036; stroke-width: 1.0;" x1="89.5" x2="95.5" y1="111.0231" y2="103.0231"/><line style="stroke: #A80036; stroke-width: 1.0;" x1="89.5" x2="89.5" y1="111.0231" y2="103.0231"/><line style="stroke: #A80036; stroke-width: 1.0;" x1="85.5" x2="93.5" y1="113.0231" y2="113.0231"/><!--link アカウント to リレーション--><path d="M89.5,245.5571 C89.5,259.2431 89.5,274.3991 89.5,288.4501 " fill="none" id="アカウント-リレーション" style="stroke: #A80036; stroke-width: 1.0; stroke-dasharray: 7.0,7.0;"/><line style="stroke: #A80036; stroke-width: 1.0;" x1="89.5" x2="95.5" y1="288.5751" y2="296.5751"/><line style="stroke: #A80036; stroke-width: 1.0;" x1="89.5" x2="83.5" y1="288.5751" y2="296.5751"/><line style="stroke: #A80036; stroke-width: 1.0;" x1="89.5" x2="89.5" y1="288.5751" y2="296.5751"/><line style="stroke: #A80036; stroke-width: 1.0;" x1="93.5" x2="85.5" y1="286.5751" y2="286.5751"/><line style="stroke: #A80036; stroke-width: 1.0;" x1="85.5" x2="93.5" y1="241.2111" y2="241.2111"/><line style="stroke: #A80036; stroke-width: 1.0;" x1="85.5" x2="93.5" y1="244.2111" y2="244.2111"/><line style="stroke: #A80036; stroke-width: 1.0;" x1="89.5" x2="89.5" y1="245.2111" y2="237.2111"/><!--link リレーション to サブスクリプション--><path d="M89.5,391.3041 C89.5,405.3871 89.5,420.59 89.5,434.317 " fill="none" id="リレーション-サブスクリプション" style="stroke: #A80036; stroke-width: 1.0; stroke-dasharray: 7.0,7.0;"/><line style="stroke: #A80036; stroke-width: 1.0;" x1="93.5" x2="85.5" y1="438.6501" y2="438.6501"/><line style="stroke: #A80036; stroke-width: 1.0;" x1="93.5" x2="85.5" y1="435.6501" y2="435.6501"/><line style="stroke: #A80036; stroke-width: 1.0;" x1="89.5" x2="89.5" y1="434.6501" y2="442.6501"/><line style="stroke: #A80036; stroke-width: 1.0;" x1="89.5" x2="83.5" y1="391.1071" y2="383.1071"/><line style="stroke: #A80036; stroke-width: 1.0;" x1="89.5" x2="95.5" y1="391.1071" y2="383.1071"/><line style="stroke: #A80036; stroke-width: 1.0;" x1="89.5" x2="89.5" y1="391.1071" y2="383.1071"/><line style="stroke: #A80036; stroke-width: 1.0;" x1="85.5" x2="93.5" y1="393.1071" y2="393.1071"/><!--
@startuml
title サブスクリプションモデル

entity ユーザ{
  * id
  * accountId
}

entity アカウント{
  * id
  * 支払い手段の情報
}

entity リレーション{
  * id
  * accountId
  * subscriptionId
}

entity サブスクリプション{
  * id
  * 契約情報
}

ユーザ }|..|| アカウント
アカウント ||..|{ リレーション
リレーション }|..|| サブスクリプション

@enduml

PlantUML version 1.2019.03(Sun Mar 10 11:04:44 UTC 2019)
(GPL source distribution)
Java Runtime: OpenJDK Runtime Environment
JVM: OpenJDK 64-Bit Server VM
Java Version: 1.8.0_212-8u212-b01-1~deb9u1-b01
Operating System: Linux
OS Version: 5.10.25-linuxkit
Default Encoding: UTF-8
Language: en
Country: null
--></g></svg>