<?xml version="1.0" encoding="UTF-8" standalone="no"?><svg xmlns="http://www.w3.org/2000/svg" xmlns:xlink="http://www.w3.org/1999/xlink" contentScriptType="application/ecmascript" contentStyleType="text/css" height="368px" preserveAspectRatio="none" style="width:237px;height:368px;" version="1.1" viewBox="0 0 237 368" width="237px" zoomAndPan="magnify"><defs><filter height="300%" id="f19jzmbic4zvzh" width="300%" x="-1" y="-1"><feGaussianBlur result="blurOut" stdDeviation="2.0"/><feColorMatrix in="blurOut" result="blurOut2" type="matrix" values="0 0 0 0 0 0 0 0 0 0 0 0 0 0 0 0 0 0 .4 0"/><feOffset dx="4.0" dy="4.0" in="blurOut2" result="blurOut3"/><feBlend in="SourceGraphic" in2="blurOut3" mode="normal"/></filter></defs><g><text fill="#000000" font-family="sans-serif" font-size="18" lengthAdjust="spacingAndGlyphs" textLength="223" x="2" y="16.708">ユーザとお財布のリレーション</text><!--class ユーザ--><rect fill="#FEFECE" filter="url(#f19jzmbic4zvzh)" height="73.6094" id="ユーザ" style="stroke: #A80036; stroke-width: 1.5;" width="69" x="73" y="28.9531"/><ellipse cx="89.35" cy="44.9531" fill="#ADD1B2" rx="11" ry="11" style="stroke: #A80036; stroke-width: 1.0;"/><path d="M93.4594,50.9531 L85.7406,50.9531 L85.7406,38.5625 L93.4594,38.5625 L93.4594,40.7188 L88.1938,40.7188 L88.1938,43.3906 L92.9594,43.3906 L92.9594,45.5469 L88.1938,45.5469 L88.1938,48.7969 L93.4594,48.7969 L93.4594,50.9531 Z "/><text fill="#000000" font-family="sans-serif" font-size="12" lengthAdjust="spacingAndGlyphs" textLength="34" x="103.65" y="49.1074">ユーザ</text><line style="stroke: #A80036; stroke-width: 1.5;" x1="74" x2="141" y1="60.9531" y2="60.9531"/><ellipse cx="84" cy="72.8555" fill="#000000" rx="3" ry="3" style="stroke: #000000; stroke-width: 1.0;"/><text fill="#000000" font-family="sans-serif" font-size="11" lengthAdjust="spacingAndGlyphs" textLength="10" x="93" y="75.1636">id</text><ellipse cx="84" cy="85.6602" fill="#000000" rx="3" ry="3" style="stroke: #000000; stroke-width: 1.0;"/><text fill="#000000" font-family="sans-serif" font-size="11" lengthAdjust="spacingAndGlyphs" textLength="43" x="93" y="87.9683">walletId</text><line style="stroke: #A80036; stroke-width: 1.5;" x1="74" x2="141" y1="94.5625" y2="94.5625"/><!--class お財布--><rect fill="#FEFECE" filter="url(#f19jzmbic4zvzh)" height="73.6094" id="お財布" style="stroke: #A80036; stroke-width: 1.5;" width="95" x="60" y="162.9531"/><ellipse cx="87.6" cy="178.9531" fill="#ADD1B2" rx="11" ry="11" style="stroke: #A80036; stroke-width: 1.0;"/><path d="M91.7094,184.9531 L83.9906,184.9531 L83.9906,172.5625 L91.7094,172.5625 L91.7094,174.7188 L86.4438,174.7188 L86.4438,177.3906 L91.2094,177.3906 L91.2094,179.5469 L86.4438,179.5469 L86.4438,182.7969 L91.7094,182.7969 L91.7094,184.9531 Z "/><text fill="#000000" font-family="sans-serif" font-size="12" lengthAdjust="spacingAndGlyphs" textLength="35" x="104.4" y="183.1074">お財布</text><line style="stroke: #A80036; stroke-width: 1.5;" x1="61" x2="154" y1="194.9531" y2="194.9531"/><ellipse cx="71" cy="206.8555" fill="#000000" rx="3" ry="3" style="stroke: #000000; stroke-width: 1.0;"/><text fill="#000000" font-family="sans-serif" font-size="11" lengthAdjust="spacingAndGlyphs" textLength="10" x="80" y="209.1636">id</text><ellipse cx="71" cy="219.6602" fill="#000000" rx="3" ry="3" style="stroke: #000000; stroke-width: 1.0;"/><text fill="#000000" font-family="sans-serif" font-size="11" lengthAdjust="spacingAndGlyphs" textLength="69" x="80" y="221.9683">creditCardId</text><line style="stroke: #A80036; stroke-width: 1.5;" x1="61" x2="154" y1="228.5625" y2="228.5625"/><!--class クレジットカード--><rect fill="#FEFECE" filter="url(#f19jzmbic4zvzh)" height="60.8047" id="クレジットカード" style="stroke: #A80036; stroke-width: 1.5;" width="112" x="51.5" y="296.9531"/><ellipse cx="66.5" cy="312.9531" fill="#ADD1B2" rx="11" ry="11" style="stroke: #A80036; stroke-width: 1.0;"/><path d="M70.6094,318.9531 L62.8906,318.9531 L62.8906,306.5625 L70.6094,306.5625 L70.6094,308.7188 L65.3438,308.7188 L65.3438,311.3906 L70.1094,311.3906 L70.1094,313.5469 L65.3438,313.5469 L65.3438,316.7969 L70.6094,316.7969 L70.6094,318.9531 Z "/><text fill="#000000" font-family="sans-serif" font-size="12" lengthAdjust="spacingAndGlyphs" textLength="80" x="80.5" y="317.1074">クレジットカード</text><line style="stroke: #A80036; stroke-width: 1.5;" x1="52.5" x2="162.5" y1="328.9531" y2="328.9531"/><ellipse cx="62.5" cy="340.8555" fill="#000000" rx="3" ry="3" style="stroke: #000000; stroke-width: 1.0;"/><text fill="#000000" font-family="sans-serif" font-size="11" lengthAdjust="spacingAndGlyphs" textLength="10" x="71.5" y="343.1636">id</text><line style="stroke: #A80036; stroke-width: 1.5;" x1="52.5" x2="162.5" y1="349.7578" y2="349.7578"/><!--link ユーザ to お財布--><path d="M107.5,111.0971 C107.5,125.1781 107.5,140.7541 107.5,154.8331 " fill="none" id="ユーザ-お財布" style="stroke: #A80036; stroke-width: 1.0; stroke-dasharray: 7.0,7.0;"/><line style="stroke: #A80036; stroke-width: 1.0;" x1="111.5" x2="103.5" y1="158.9271" y2="158.9271"/><line style="stroke: #A80036; stroke-width: 1.0;" x1="111.5" x2="103.5" y1="155.9271" y2="155.9271"/><line style="stroke: #A80036; stroke-width: 1.0;" x1="107.5" x2="107.5" y1="154.9271" y2="162.9271"/><line style="stroke: #A80036; stroke-width: 1.0;" x1="107.5" x2="101.5" y1="111.0231" y2="103.0231"/><line style="stroke: #A80036; stroke-width: 1.0;" x1="107.5" x2="113.5" y1="111.0231" y2="103.0231"/><line style="stroke: #A80036; stroke-width: 1.0;" x1="107.5" x2="107.5" y1="111.0231" y2="103.0231"/><line style="stroke: #A80036; stroke-width: 1.0;" x1="103.5" x2="111.5" y1="113.0231" y2="113.0231"/><!--link お財布 to クレジットカード--><path d="M107.5,245.3991 C107.5,259.4486 107.5,274.8392 107.5,288.399 " fill="none" id="お財布-クレジットカード" style="stroke: #A80036; stroke-width: 1.0; stroke-dasharray: 7.0,7.0;"/><line style="stroke: #A80036; stroke-width: 1.0;" x1="107.5" x2="113.5" y1="288.5771" y2="296.5771"/><line style="stroke: #A80036; stroke-width: 1.0;" x1="107.5" x2="101.5" y1="288.5771" y2="296.5771"/><line style="stroke: #A80036; stroke-width: 1.0;" x1="107.5" x2="107.5" y1="288.5771" y2="296.5771"/><line style="stroke: #A80036; stroke-width: 1.0;" x1="111.5" x2="103.5" y1="286.5771" y2="286.5771"/><line style="stroke: #A80036; stroke-width: 1.0;" x1="103.5" x2="111.5" y1="241.2531" y2="241.2531"/><line style="stroke: #A80036; stroke-width: 1.0;" x1="103.5" x2="111.5" y1="244.2531" y2="244.2531"/><line style="stroke: #A80036; stroke-width: 1.0;" x1="107.5" x2="107.5" y1="245.2531" y2="237.2531"/><!--
@startuml

title ユーザとお財布のリレーション

entity ユーザ{
  * id
  * walletId
}

entity お財布{
  * id
  * creditCardId
}

entity クレジットカード{
  * id
}

ユーザ }|..|| お財布
お財布 ||..|{ クレジットカード

@enduml

PlantUML version 1.2019.03(Sun Mar 10 11:04:44 UTC 2019)
(GPL source distribution)
Java Runtime: OpenJDK Runtime Environment
JVM: OpenJDK 64-Bit Server VM
Java Version: 1.8.0_212-8u212-b01-1~deb9u1-b01
Operating System: Linux
OS Version: 5.10.25-linuxkit
Default Encoding: UTF-8
Language: en
Country: null
--></g></svg>