<?xml version="1.0" encoding="UTF-8" standalone="no"?><svg xmlns="http://www.w3.org/2000/svg" xmlns:xlink="http://www.w3.org/1999/xlink" contentScriptType="application/ecmascript" contentStyleType="text/css" height="412px" preserveAspectRatio="none" style="width:209px;height:412px;" version="1.1" viewBox="0 0 209 412" width="209px" zoomAndPan="magnify"><defs><filter height="300%" id="farzc5nrkbx5o" width="300%" x="-1" y="-1"><feGaussianBlur result="blurOut" stdDeviation="2.0"/><feColorMatrix in="blurOut" result="blurOut2" type="matrix" values="0 0 0 0 0 0 0 0 0 0 0 0 0 0 0 0 0 0 .4 0"/><feOffset dx="4.0" dy="4.0" in="blurOut2" result="blurOut3"/><feBlend in="SourceGraphic" in2="blurOut3" mode="normal"/></filter></defs><g><text fill="#000000" font-family="sans-serif" font-size="18" lengthAdjust="spacingAndGlyphs" textLength="180" x="13.5" y="26.708">物理設計の５つのタスク</text><ellipse cx="104" cy="40.9531" fill="#000000" filter="url(#farzc5nrkbx5o)" rx="10" ry="10" style="stroke: none; stroke-width: 1.0;"/><rect fill="#FFFFFF" filter="url(#farzc5nrkbx5o)" height="298.1406" style="stroke: #000000; stroke-width: 2.0;" width="188" x="10" y="61.7549"/><path d="M99,62.7549 L99,71.0518 L89,81.0518 L10,81.0518 " fill="none" style="stroke: #000000; stroke-width: 2.0;"/><text fill="#000000" font-family="sans-serif" font-size="14" lengthAdjust="spacingAndGlyphs" textLength="79" x="13" y="75.75">Initialization</text><rect fill="#FEFECE" filter="url(#farzc5nrkbx5o)" height="33.9688" rx="12.5" ry="12.5" style="stroke: #A80036; stroke-width: 1.5;" width="101" x="53.5" y="98.0518"/><text fill="#000000" font-family="sans-serif" font-size="12" lengthAdjust="spacingAndGlyphs" textLength="81" x="63.5" y="119.1904">1.テーブル定義</text><rect fill="#FEFECE" filter="url(#farzc5nrkbx5o)" height="33.9688" rx="12.5" ry="12.5" style="stroke: #A80036; stroke-width: 1.5;" width="116" x="46" y="152.0205"/><text fill="#000000" font-family="sans-serif" font-size="12" lengthAdjust="spacingAndGlyphs" textLength="96" x="56" y="173.1592">2.インデックス定義</text><rect fill="#FEFECE" filter="url(#farzc5nrkbx5o)" height="33.9688" rx="12.5" ry="12.5" style="stroke: #A80036; stroke-width: 1.5;" width="158" x="25" y="205.9893"/><text fill="#000000" font-family="sans-serif" font-size="12" lengthAdjust="spacingAndGlyphs" textLength="138" x="35" y="227.1279">3.ハードウェアのサイジング</text><rect fill="#FEFECE" filter="url(#farzc5nrkbx5o)" height="33.9688" rx="12.5" ry="12.5" style="stroke: #A80036; stroke-width: 1.5;" width="168" x="20" y="259.958"/><text fill="#000000" font-family="sans-serif" font-size="12" lengthAdjust="spacingAndGlyphs" textLength="148" x="30" y="281.0967">4.ストレージの冗長構成決定</text><rect fill="#FEFECE" filter="url(#farzc5nrkbx5o)" height="33.9688" rx="12.5" ry="12.5" style="stroke: #A80036; stroke-width: 1.5;" width="156" x="26" y="313.9268"/><text fill="#000000" font-family="sans-serif" font-size="12" lengthAdjust="spacingAndGlyphs" textLength="136" x="36" y="335.0654">5.ファイルの物理配置決定</text><ellipse cx="104" cy="390.8955" fill="#FFFFFF" filter="url(#farzc5nrkbx5o)" rx="11" ry="11" style="stroke: #000000; stroke-width: 1.0;"/><ellipse cx="104" cy="390.8955" fill="#000000" rx="6" ry="6" style="stroke: #7F7F7F; stroke-width: 1.0;"/><line style="stroke: #A80036; stroke-width: 1.5;" x1="104" x2="104" y1="132.0205" y2="152.0205"/><polygon fill="#A80036" points="100,142.0205,104,152.0205,108,142.0205,104,146.0205" style="stroke: #A80036; stroke-width: 1.0;"/><line style="stroke: #A80036; stroke-width: 1.5;" x1="104" x2="104" y1="185.9893" y2="205.9893"/><polygon fill="#A80036" points="100,195.9893,104,205.9893,108,195.9893,104,199.9893" style="stroke: #A80036; stroke-width: 1.0;"/><line style="stroke: #A80036; stroke-width: 1.5;" x1="104" x2="104" y1="239.958" y2="259.958"/><polygon fill="#A80036" points="100,249.958,104,259.958,108,249.958,104,253.958" style="stroke: #A80036; stroke-width: 1.0;"/><line style="stroke: #A80036; stroke-width: 1.5;" x1="104" x2="104" y1="293.9268" y2="313.9268"/><polygon fill="#A80036" points="100,303.9268,104,313.9268,108,303.9268,104,307.9268" style="stroke: #A80036; stroke-width: 1.0;"/><line style="stroke: #A80036; stroke-width: 1.5;" x1="104" x2="104" y1="50.9531" y2="98.0518"/><polygon fill="#A80036" points="100,88.0518,104,98.0518,108,88.0518,104,92.0518" style="stroke: #A80036; stroke-width: 1.0;"/><line style="stroke: #A80036; stroke-width: 1.5;" x1="104" x2="104" y1="347.8955" y2="379.8955"/><polygon fill="#A80036" points="100,369.8955,104,379.8955,108,369.8955,104,373.8955" style="stroke: #A80036; stroke-width: 1.0;"/><!--
@startuml
title 物理設計の５つのタスク

start
partition Initialization {
:1.テーブル定義;
:2.インデックス定義;
:3.ハードウェアのサイジング;
:4.ストレージの冗長構成決定;
:5.ファイルの物理配置決定;
}
stop

@enduml

PlantUML version 1.2019.03(Sun Mar 10 11:04:44 UTC 2019)
(GPL source distribution)
Java Runtime: OpenJDK Runtime Environment
JVM: OpenJDK 64-Bit Server VM
Java Version: 1.8.0_212-8u212-b01-1~deb9u1-b01
Operating System: Linux
OS Version: 5.10.25-linuxkit
Default Encoding: UTF-8
Language: en
Country: null
--></g></svg>