<?xml version="1.0" encoding="UTF-8" standalone="no"?><svg xmlns="http://www.w3.org/2000/svg" xmlns:xlink="http://www.w3.org/1999/xlink" contentScriptType="application/ecmascript" contentStyleType="text/css" height="419px" preserveAspectRatio="none" style="width:113px;height:419px;" version="1.1" viewBox="0 0 113 419" width="113px" zoomAndPan="magnify"><defs><filter height="300%" id="f1wg86tnrhdczw" width="300%" x="-1" y="-1"><feGaussianBlur result="blurOut" stdDeviation="2.0"/><feColorMatrix in="blurOut" result="blurOut2" type="matrix" values="0 0 0 0 0 0 0 0 0 0 0 0 0 0 0 0 0 0 .4 0"/><feOffset dx="4.0" dy="4.0" in="blurOut2" result="blurOut3"/><feBlend in="SourceGraphic" in2="blurOut3" mode="normal"/></filter></defs><g><text fill="#000000" font-family="sans-serif" font-size="18" lengthAdjust="spacingAndGlyphs" textLength="77" x="21.5" y="16.708">ER図の例</text><!--class 会社--><rect fill="#FEFECE" filter="url(#f1wg86tnrhdczw)" height="73.6094" id="会社" style="stroke: #A80036; stroke-width: 1.5;" width="75" x="16.5" y="28.9531"/><ellipse cx="40.05" cy="44.9531" fill="#ADD1B2" rx="11" ry="11" style="stroke: #A80036; stroke-width: 1.0;"/><path d="M44.1594,50.9531 L36.4406,50.9531 L36.4406,38.5625 L44.1594,38.5625 L44.1594,40.7188 L38.8938,40.7188 L38.8938,43.3906 L43.6594,43.3906 L43.6594,45.5469 L38.8938,45.5469 L38.8938,48.7969 L44.1594,48.7969 L44.1594,50.9531 Z "/><text fill="#000000" font-family="sans-serif" font-size="12" lengthAdjust="spacingAndGlyphs" textLength="24" x="55.95" y="49.1074">会社</text><line style="stroke: #A80036; stroke-width: 1.5;" x1="17.5" x2="90.5" y1="60.9531" y2="60.9531"/><ellipse cx="27.5" cy="72.8555" fill="#000000" rx="3" ry="3" style="stroke: #000000; stroke-width: 1.0;"/><text fill="#000000" font-family="sans-serif" font-size="11" lengthAdjust="spacingAndGlyphs" textLength="49" x="36.5" y="75.1636">会社コード</text><line style="stroke: #A80036; stroke-width: 1.0;" x1="17.5" x2="90.5" y1="81.7578" y2="81.7578"/><ellipse cx="27.5" cy="93.6602" fill="#000000" rx="3" ry="3" style="stroke: #000000; stroke-width: 1.0;"/><text fill="#000000" font-family="sans-serif" font-size="11" lengthAdjust="spacingAndGlyphs" textLength="33" x="36.5" y="95.9683">会社名</text><!--class 社員--><rect fill="#FEFECE" filter="url(#f1wg86tnrhdczw)" height="112.0234" id="社員" style="stroke: #A80036; stroke-width: 1.5;" width="96" x="6" y="162.9531"/><ellipse cx="39" cy="178.9531" fill="#ADD1B2" rx="11" ry="11" style="stroke: #A80036; stroke-width: 1.0;"/><path d="M43.1094,184.9531 L35.3906,184.9531 L35.3906,172.5625 L43.1094,172.5625 L43.1094,174.7188 L37.8438,174.7188 L37.8438,177.3906 L42.6094,177.3906 L42.6094,179.5469 L37.8438,179.5469 L37.8438,182.7969 L43.1094,182.7969 L43.1094,184.9531 Z "/><text fill="#000000" font-family="sans-serif" font-size="12" lengthAdjust="spacingAndGlyphs" textLength="24" x="57" y="183.1074">社員</text><line style="stroke: #A80036; stroke-width: 1.5;" x1="7" x2="101" y1="194.9531" y2="194.9531"/><ellipse cx="17" cy="206.8555" fill="#000000" rx="3" ry="3" style="stroke: #000000; stroke-width: 1.0;"/><text fill="#000000" font-family="sans-serif" font-size="11" lengthAdjust="spacingAndGlyphs" textLength="70" x="26" y="209.1636">会社コード(FK)</text><ellipse cx="17" cy="219.6602" fill="#000000" rx="3" ry="3" style="stroke: #000000; stroke-width: 1.0;"/><text fill="#000000" font-family="sans-serif" font-size="11" lengthAdjust="spacingAndGlyphs" textLength="33" x="26" y="221.9683">社員ID</text><line style="stroke: #A80036; stroke-width: 1.0;" x1="7" x2="101" y1="228.5625" y2="228.5625"/><ellipse cx="17" cy="240.4648" fill="#000000" rx="3" ry="3" style="stroke: #000000; stroke-width: 1.0;"/><text fill="#000000" font-family="sans-serif" font-size="11" lengthAdjust="spacingAndGlyphs" textLength="33" x="26" y="242.7729">社員名</text><ellipse cx="17" cy="253.2695" fill="#000000" rx="3" ry="3" style="stroke: #000000; stroke-width: 1.0;"/><text fill="#000000" font-family="sans-serif" font-size="11" lengthAdjust="spacingAndGlyphs" textLength="22" x="26" y="255.5776">年齢</text><ellipse cx="17" cy="266.0742" fill="#000000" rx="3" ry="3" style="stroke: #000000; stroke-width: 1.0;"/><text fill="#000000" font-family="sans-serif" font-size="11" lengthAdjust="spacingAndGlyphs" textLength="70" x="26" y="268.3823">部署コード(FK)</text><!--class 部署--><rect fill="#FEFECE" filter="url(#f1wg86tnrhdczw)" height="73.6094" id="部署" style="stroke: #A80036; stroke-width: 1.5;" width="75" x="16.5" y="334.9531"/><ellipse cx="40.05" cy="350.9531" fill="#ADD1B2" rx="11" ry="11" style="stroke: #A80036; stroke-width: 1.0;"/><path d="M44.1594,356.9531 L36.4406,356.9531 L36.4406,344.5625 L44.1594,344.5625 L44.1594,346.7188 L38.8938,346.7188 L38.8938,349.3906 L43.6594,349.3906 L43.6594,351.5469 L38.8938,351.5469 L38.8938,354.7969 L44.1594,354.7969 L44.1594,356.9531 Z "/><text fill="#000000" font-family="sans-serif" font-size="12" lengthAdjust="spacingAndGlyphs" textLength="24" x="55.95" y="355.1074">部署</text><line style="stroke: #A80036; stroke-width: 1.5;" x1="17.5" x2="90.5" y1="366.9531" y2="366.9531"/><ellipse cx="27.5" cy="378.8555" fill="#000000" rx="3" ry="3" style="stroke: #000000; stroke-width: 1.0;"/><text fill="#000000" font-family="sans-serif" font-size="11" lengthAdjust="spacingAndGlyphs" textLength="49" x="36.5" y="381.1636">部署コード</text><line style="stroke: #A80036; stroke-width: 1.0;" x1="17.5" x2="90.5" y1="387.7578" y2="387.7578"/><ellipse cx="27.5" cy="399.6602" fill="#000000" rx="3" ry="3" style="stroke: #000000; stroke-width: 1.0;"/><text fill="#000000" font-family="sans-serif" font-size="11" lengthAdjust="spacingAndGlyphs" textLength="33" x="36.5" y="401.9683">部署名</text><!--link 会社 to 社員--><path d="M54,111.3361 C54,124.9621 54,140.2271 54,154.8531 " fill="none" id="会社-社員" style="stroke: #A80036; stroke-width: 1.0; stroke-dasharray: 7.0,7.0;"/><line style="stroke: #A80036; stroke-width: 1.0;" x1="54" x2="60" y1="154.8991" y2="162.8991"/><line style="stroke: #A80036; stroke-width: 1.0;" x1="54" x2="48" y1="154.8991" y2="162.8991"/><line style="stroke: #A80036; stroke-width: 1.0;" x1="54" x2="54" y1="154.8991" y2="162.8991"/><line style="stroke: #A80036; stroke-width: 1.0;" x1="58" x2="50" y1="152.8991" y2="152.8991"/><line style="stroke: #A80036; stroke-width: 1.0;" x1="50" x2="58" y1="107.1211" y2="107.1211"/><line style="stroke: #A80036; stroke-width: 1.0;" x1="50" x2="58" y1="110.1211" y2="110.1211"/><line style="stroke: #A80036; stroke-width: 1.0;" x1="54" x2="54" y1="111.1211" y2="103.1211"/><!--link 社員 to 部署--><path d="M54,283.3291 C54,297.9001 54,313.0897 54,326.6502 " fill="none" id="社員-部署" style="stroke: #A80036; stroke-width: 1.0; stroke-dasharray: 7.0,7.0;"/><line style="stroke: #A80036; stroke-width: 1.0;" x1="58" x2="50" y1="330.8628" y2="330.8628"/><line style="stroke: #A80036; stroke-width: 1.0;" x1="58" x2="50" y1="327.8628" y2="327.8628"/><line style="stroke: #A80036; stroke-width: 1.0;" x1="54" x2="54" y1="326.8628" y2="334.8628"/><line style="stroke: #A80036; stroke-width: 1.0;" x1="54" x2="48" y1="283.3221" y2="275.3221"/><line style="stroke: #A80036; stroke-width: 1.0;" x1="54" x2="60" y1="283.3221" y2="275.3221"/><line style="stroke: #A80036; stroke-width: 1.0;" x1="54" x2="54" y1="283.3221" y2="275.3221"/><ellipse cx="54" cy="289.3221" fill="none" rx="4" ry="4" style="stroke: #A80036; stroke-width: 1.0;"/><!--
@startuml
title ER図の例

entity 会社{
  * 会社コード
  - -
  * 会社名
}
entity 社員{
  * 会社コード(FK)
  * 社員ID
  - -
  * 社員名
  * 年齢
  * 部署コード(FK)
}
entity 部署{
  * 部署コード
  - -
  * 部署名
}

会社 ||..|{ 社員
社員 }o..|| 部署

@enduml

PlantUML version 1.2019.03(Sun Mar 10 11:04:44 UTC 2019)
(GPL source distribution)
Java Runtime: OpenJDK Runtime Environment
JVM: OpenJDK 64-Bit Server VM
Java Version: 1.8.0_212-8u212-b01-1~deb9u1-b01
Operating System: Linux
OS Version: 5.10.25-linuxkit
Default Encoding: UTF-8
Language: en
Country: null
--></g></svg>